<svg width="173" height="232" viewBox="0 0 173 232" fill="none" xmlns="http://www.w3.org/2000/svg">
<g clip-path="url(#clip0_5_284)">
<path d="M232.109 40.5541C231.533 42.372 231.135 44.2764 230.342 45.9898C227.627 51.8664 222.738 54.8933 216.49 54.8115C210.25 54.7297 205.47 51.5482 202.828 45.6671C202.343 44.59 201.917 43.9946 200.59 43.9991C183.674 44.0491 166.764 44.0355 149.849 44.0446C149.554 44.0446 149.255 44.1082 148.766 44.1627C148.766 53.2071 148.766 62.2424 148.766 71.6231C150.682 71.6231 152.613 71.614 154.543 71.6231C158.612 71.6504 160.343 73.3638 160.343 77.4043C160.352 87.7803 160.347 98.1564 160.347 108.532C160.347 109.432 160.347 110.332 160.347 111.496C161.208 111.541 161.929 111.609 162.649 111.609C170.579 111.618 178.504 111.591 186.434 111.637C187.843 111.646 188.613 111.368 189.307 109.864C192.361 103.21 198.156 100.356 203.693 100.861C211.8 101.597 216.721 106.369 217.967 113.591C219.58 122.94 212.289 130.121 205.125 130.98C197.141 131.939 191.482 127.058 189.171 122.049C188.858 121.372 188.033 120.458 187.44 120.454C178.54 120.349 169.637 120.381 160.547 120.381C160.547 126.835 160.547 133.139 160.547 139.788C161.43 139.788 162.3 139.788 163.175 139.788C172.31 139.788 181.45 139.783 190.585 139.792C194.93 139.797 196.602 141.474 196.602 145.805C196.607 154.741 196.602 163.68 196.602 172.616C196.602 172.993 196.62 173.375 196.597 173.752C196.439 176.274 194.749 178.256 192.547 178.506C190.539 178.733 188.654 177.115 188.088 174.579C187.911 173.779 187.875 172.939 187.87 172.116C187.857 164.399 187.861 156.677 187.861 148.755C178.722 148.755 169.718 148.755 160.352 148.755C160.352 150.664 160.357 152.6 160.352 154.536C160.338 158.581 158.612 160.358 154.602 160.363C144.257 160.381 133.912 160.367 123.567 160.367C122.67 160.367 121.768 160.367 120.663 160.367C120.595 161.144 120.491 161.79 120.491 162.435C120.477 170.539 120.513 178.642 120.454 186.746C120.445 188.141 120.849 188.773 122.194 189.391C128.815 192.445 131.647 198.317 131.221 203.799C130.609 211.652 125.692 216.856 118.746 218.16C109.983 219.806 102.121 213.079 101.187 205.289C100.222 197.249 105.062 191.632 110.051 189.282C110.73 188.964 111.655 188.15 111.659 187.56C111.763 178.629 111.732 169.698 111.732 160.572C105.315 160.572 99.0261 160.572 92.3878 160.572C92.3878 161.431 92.3878 162.308 92.3878 163.181C92.3878 172.343 92.3923 181.51 92.3878 190.673C92.3878 195.05 90.7294 196.731 86.4156 196.731C68.4447 196.736 50.4737 196.754 32.5028 196.699C30.8081 196.695 29.9744 197.09 29.1633 198.799C26.0322 205.398 20.1687 208.039 14.8128 207.466C6.57952 206.589 1.97124 202.067 0.652656 194.6C0.598274 194.281 0.299217 194.004 0.113426 193.709C0.113426 192.95 0.113426 192.195 0.113426 191.436C0.657173 189.696 1.05138 187.887 1.77639 186.223C4.41811 180.174 9.38889 177.202 15.6919 177.17C21.9994 177.138 26.6711 180.474 29.3762 186.269C29.8701 187.323 30.2236 187.991 31.5739 187.987C48.412 187.937 65.2501 187.955 82.0883 187.946C82.5233 187.946 82.9537 187.869 83.5111 187.819C83.5111 178.706 83.5111 169.725 83.5111 160.363C81.7212 160.363 79.9495 160.363 78.1733 160.363C73.3837 160.358 71.8703 158.822 71.8658 153.95C71.8612 143.801 71.8658 133.652 71.8658 123.503C71.8658 122.599 71.8658 121.695 71.8658 120.499C71.0501 120.449 70.3342 120.372 69.6183 120.372C61.6161 120.363 53.6094 120.395 45.6072 120.34C44.2387 120.331 43.5545 120.667 42.9383 122.049C39.925 128.812 33.7036 131.58 28.5742 131.148C20.5856 130.471 15.5197 125.662 14.2419 118.399C12.7058 109.646 19.3531 101.974 27.0925 101.001C35.0539 100.002 40.9037 105.124 43.0515 109.941C43.3506 110.614 44.1798 111.518 44.7689 111.528C53.6683 111.628 62.5722 111.596 71.6709 111.596C71.6709 105.146 71.6709 98.8427 71.6709 92.1889C70.8009 92.1889 69.9264 92.1889 69.0519 92.1889C59.8398 92.1889 50.6278 92.1934 41.4158 92.1843C37.392 92.1798 35.6203 90.4209 35.6203 86.4078C35.6112 77.1679 35.6022 67.9281 35.6294 58.6883C35.6384 55.9568 36.7486 54.4388 39.0233 53.7162C41.0034 53.089 42.535 53.9525 43.4095 55.5205C44.0666 56.6976 44.3022 58.2383 44.3203 59.6245C44.4064 66.5919 44.3611 73.5593 44.3611 80.5266C44.3611 81.3538 44.3611 82.181 44.3611 83.2127C53.4961 83.2127 62.5042 83.2127 71.8703 83.2127C71.8703 81.3856 71.8658 79.5267 71.8703 77.6679C71.8839 73.282 73.5242 71.6095 77.8516 71.605C88.1194 71.5959 98.3917 71.6004 108.66 71.6004C109.557 71.6004 110.458 71.6004 111.564 71.6004C111.632 70.8232 111.736 70.1779 111.736 69.5279C111.745 61.4243 111.714 53.3207 111.772 45.2172C111.782 43.8219 111.378 43.1901 110.028 42.572C103.335 39.5224 100.417 33.3322 101.052 27.9465C102.044 19.5702 106.793 14.8844 114.138 13.7709C122.172 12.5483 128.828 18.0158 130.758 24.8605C132.72 31.8187 128.996 39.5269 122.199 42.6902C121.487 43.022 120.568 43.9537 120.559 44.6127C120.45 53.4662 120.486 62.3242 120.486 71.3913C126.889 71.3913 133.178 71.3913 139.835 71.3913C139.835 70.5596 139.835 69.687 139.835 68.8144C139.835 59.6518 139.83 50.4847 139.835 41.3222C139.835 36.8545 141.47 35.2411 146.002 35.2411C163.972 35.2411 181.943 35.2274 199.914 35.2638C201.405 35.2683 202.212 34.9775 202.937 33.3913C205.819 27.1284 211.442 24.2696 216.956 24.456C224.08 24.7014 229.417 29.1463 231.262 35.6137C231.556 36.65 231.828 37.6953 232.109 38.7361C232.109 39.3451 232.109 39.9496 232.109 40.5541ZM151.489 80.5357C127.754 80.5357 104.305 80.5357 80.7697 80.5357C80.7697 104.256 80.7697 127.826 80.7697 151.432C104.436 151.432 127.94 151.432 151.489 151.432C151.489 127.726 151.489 104.206 151.489 80.5357ZM202.991 122.522C206.684 122.563 209.589 119.704 209.611 116.009C209.629 112.341 206.883 109.519 203.263 109.482C199.552 109.446 196.616 112.314 196.611 115.982C196.602 119.568 199.443 122.481 202.991 122.522ZM109.607 28.7827C109.62 32.3505 112.497 35.2456 116.045 35.2638C119.729 35.282 122.62 32.3732 122.607 28.6646C122.593 25.1013 119.711 22.2289 116.145 22.2199C112.384 22.2108 109.588 25.015 109.607 28.7827ZM116.082 209.784C119.625 209.811 122.557 206.939 122.607 203.389C122.657 199.704 119.752 196.731 116.109 196.74C112.538 196.749 109.656 199.599 109.602 203.162C109.552 206.939 112.307 209.757 116.082 209.784ZM29.1406 122.526C32.7928 122.504 35.6701 119.527 35.6112 115.85C35.5523 112.305 32.6297 109.464 29.0591 109.482C25.5066 109.5 22.6156 112.396 22.6065 115.941C22.5975 119.64 25.4794 122.549 29.1406 122.526ZM210.2 39.7087C210.205 43.2447 213.109 46.1489 216.653 46.167C220.319 46.1852 223.214 43.2765 223.205 39.5815C223.196 36.041 220.31 33.1549 216.752 33.1231C213.105 33.0913 210.191 36.0182 210.2 39.7087ZM15.6511 198.876C19.1854 198.845 22.0084 195.94 22.0175 192.332C22.022 188.678 19.0767 185.792 15.3883 185.832C11.8448 185.873 9.02186 188.768 9.01733 192.373C9.00828 196.022 11.9581 198.913 15.6511 198.876Z" fill="#CFDEEC"/>
<path d="M40.1063 30.3826C31.1389 29.8463 24.9221 23.8106 24.8813 15.2798C24.8314 6.49447 30.9667 0.0361398 39.9703 -0.00021917C48.9785 -0.0365781 55.1455 6.64446 55.0956 15.0344C55.0367 24.1651 48.548 29.769 40.1063 30.3826ZM39.9567 21.6291C43.5319 21.6381 46.4364 18.7976 46.4863 15.2434C46.5361 11.5575 43.6588 8.60786 39.9975 8.58514C36.4405 8.56696 33.5269 11.4212 33.4816 14.9662C33.4363 18.6703 36.2955 21.6154 39.9567 21.6291Z" fill="#CFDEEC"/>
<path d="M39.8886 45.8944C37.6819 45.8535 35.6882 43.881 35.6655 41.7176C35.6428 39.4406 37.691 37.4817 40.0653 37.5045C42.2766 37.5272 44.2839 39.4997 44.3021 41.6631C44.3247 43.9083 42.2086 45.9353 39.8886 45.8944Z" fill="#CFDEEC"/>
<path d="M115.887 136.747C110.912 136.747 105.932 136.761 100.956 136.743C97.2273 136.729 95.442 134.943 95.4329 131.157C95.4102 121.095 95.4102 111.037 95.4329 100.974C95.442 97.0428 97.2046 95.2657 101.056 95.2612C111.011 95.2476 120.966 95.2476 130.922 95.2612C135.095 95.2657 136.785 96.9746 136.79 101.192C136.803 111.178 136.803 121.163 136.79 131.148C136.785 134.911 135.013 136.715 131.275 136.738C126.146 136.77 121.016 136.747 115.887 136.747ZM127.904 127.853C127.904 119.799 127.904 112.037 127.904 104.187C119.961 104.187 112.167 104.187 104.35 104.187C104.35 112.173 104.35 119.99 104.35 127.853C112.28 127.853 120.019 127.853 127.904 127.853Z" fill="#CFDEEC"/>
</g>
<defs>
<clipPath id="clip0_5_284">
<rect width="232" height="173" fill="white" transform="translate(173) rotate(90)"/>
</clipPath>
</defs>
</svg>
