<svg width="380" height="474" viewBox="0 0 380 474" fill="none" xmlns="http://www.w3.org/2000/svg">
<g clip-path="url(#clip0_5_355)">
<path d="M-93 390.818C-91.8267 387.112 -91.0138 383.229 -89.3971 379.736C-83.8633 367.755 -73.8952 361.583 -61.1556 361.75C-48.4345 361.917 -38.6881 368.403 -33.3022 380.394C-32.3137 382.59 -31.4453 383.804 -28.7385 383.794C5.74798 383.692 40.2252 383.72 74.7117 383.702C75.3122 383.702 75.922 383.572 76.9197 383.461C76.9197 365.021 76.9197 346.6 76.9197 327.475C73.0119 327.475 69.0764 327.493 65.1409 327.475C56.8449 327.419 53.3159 323.926 53.3159 315.688C53.2974 294.534 53.3066 273.379 53.3066 252.224C53.3066 250.39 53.3066 248.555 53.3066 246.183C51.5514 246.09 50.0825 245.951 48.6136 245.951C32.4466 245.933 16.2889 245.988 0.121881 245.895C-2.75123 245.877 -4.32174 246.442 -5.73519 249.509C-11.9618 263.075 -23.7776 268.894 -35.0667 267.866C-51.594 266.364 -61.6268 256.635 -64.1673 241.911C-67.4561 222.851 -52.5918 208.21 -37.986 206.459C-21.7082 204.504 -10.1696 214.455 -5.45804 224.667C-4.8206 226.047 -3.13923 227.91 -1.92902 227.919C16.215 228.132 34.3682 228.067 52.9002 228.067C52.9002 214.909 52.9002 202.057 52.9002 188.501C51.0987 188.501 49.325 188.501 47.542 188.501C28.9176 188.501 10.284 188.51 -8.34038 188.492C-17.1999 188.482 -20.6088 185.063 -20.6088 176.233C-20.6181 158.015 -20.6088 139.789 -20.6088 121.572C-20.6088 120.802 -20.6458 120.024 -20.5996 119.255C-20.2762 114.112 -16.8304 110.072 -12.3406 109.563C-8.248 109.099 -4.40487 112.398 -3.25008 117.569C-2.88979 119.199 -2.8159 120.914 -2.80666 122.591C-2.77894 138.325 -2.78817 154.068 -2.78817 170.219C15.8454 170.219 34.2019 170.219 53.2974 170.219C53.2974 166.327 53.2882 162.38 53.2974 158.432C53.3251 150.185 56.8449 146.562 65.0208 146.553C86.1118 146.516 107.203 146.544 128.294 146.544C130.123 146.544 131.961 146.544 134.216 146.544C134.354 144.959 134.567 143.644 134.567 142.328C134.594 125.806 134.52 109.285 134.64 92.763C134.659 89.9183 133.837 88.6304 131.093 87.3702C117.596 81.1433 111.822 69.1714 112.69 57.9965C113.938 41.9845 123.961 31.3748 138.123 28.7154C155.99 25.3611 172.019 39.075 173.922 54.9572C175.889 71.349 166.023 82.802 155.852 87.5925C154.466 88.2412 152.581 89.8998 152.572 91.1044C152.36 109.312 152.424 127.52 152.424 146.127C165.506 146.127 178.328 146.127 191.862 146.127C191.862 144.376 191.862 142.587 191.862 140.808C191.862 122.127 191.853 103.438 191.862 84.7571C191.862 75.8338 195.244 72.4053 204.038 72.4053C240.677 72.3961 277.317 72.359 313.956 72.4702C317.411 72.4794 319.11 71.6733 320.764 68.1892C327.148 54.7348 339.102 49.3512 350.022 50.5187C366.808 52.3071 376.203 61.5269 378.891 76.7511C379.002 77.3998 379.612 77.965 379.991 78.5673C379.991 80.1148 379.991 81.653 379.991 83.2004C378.882 86.7493 378.078 90.4373 376.6 93.8287C371.214 106.162 361.08 112.222 348.23 112.287C335.37 112.352 325.845 105.55 320.33 93.736C319.323 91.5863 318.602 90.2241 315.849 90.2334C281.52 90.3353 247.19 90.2983 212.861 90.3168C211.974 90.3168 211.097 90.4743 209.96 90.5762C209.96 109.155 209.96 127.465 209.96 146.553C213.609 146.553 217.221 146.553 220.843 146.553C230.608 146.562 233.693 149.694 233.703 159.628C233.712 180.319 233.703 201.01 233.703 221.702C233.703 223.546 233.703 225.39 233.703 227.827C235.365 227.928 236.825 228.086 238.285 228.086C254.6 228.104 270.924 228.04 287.238 228.151C290.028 228.169 291.423 227.484 292.68 224.667C298.823 210.879 311.507 205.236 321.965 206.116C338.252 207.497 348.581 217.3 351.186 232.107C354.318 249.954 340.765 265.595 324.986 267.578C308.754 269.617 296.828 259.174 292.449 249.352C291.839 247.98 290.148 246.136 288.947 246.118C270.804 245.914 252.65 245.979 234.1 245.979C234.1 259.128 234.1 271.98 234.1 285.545C235.874 285.545 237.657 285.545 239.44 285.545C258.221 285.545 277.002 285.536 295.784 285.555C303.987 285.564 307.6 289.15 307.6 297.332C307.618 316.17 307.637 335.008 307.581 353.846C307.563 359.415 305.299 362.51 300.662 363.983C296.624 365.262 293.502 363.502 291.719 360.305C290.379 357.905 289.899 354.764 289.862 351.937C289.687 337.732 289.779 323.527 289.779 309.322C289.779 307.636 289.779 305.949 289.779 303.846C271.155 303.846 252.789 303.846 233.693 303.846C233.693 307.571 233.703 311.361 233.693 315.151C233.666 324.093 230.321 327.503 221.499 327.512C200.565 327.53 179.622 327.521 158.688 327.521C156.859 327.521 155.02 327.521 152.766 327.521C152.627 329.106 152.415 330.421 152.415 331.746C152.396 348.268 152.461 364.79 152.341 381.311C152.323 384.156 153.145 385.444 155.898 386.704C169.543 392.922 175.492 405.542 174.199 416.522C172.176 433.6 162.494 443.153 147.519 445.424C131.139 447.916 117.568 436.769 113.633 422.814C109.632 408.628 117.226 392.912 131.084 386.463C132.534 385.787 134.41 383.887 134.428 382.543C134.65 364.493 134.576 346.433 134.576 327.947C121.522 327.947 108.699 327.947 95.1283 327.947C95.1283 329.643 95.1283 331.422 95.1283 333.201C95.1283 351.882 95.1376 370.572 95.1283 389.252C95.1283 398.361 91.7933 401.65 82.5551 401.65C45.916 401.65 9.27701 401.678 -27.362 401.604C-30.4014 401.595 -32.0458 402.188 -33.524 405.422C-39.3995 418.19 -50.8642 424.019 -62.1072 423.639C-76.6298 423.138 -87.5125 414.076 -91.2724 400.89C-91.8729 398.778 -92.4272 396.647 -93 394.525C-93 393.283 -93 392.051 -93 390.818ZM71.3675 309.304C119.758 309.304 167.566 309.304 215.549 309.304C215.549 260.944 215.549 212.889 215.549 164.761C167.298 164.761 119.379 164.761 71.3675 164.761C71.3675 213.093 71.3675 261.046 71.3675 309.304ZM-33.6348 223.703C-41.164 223.62 -47.0857 229.448 -47.1319 236.981C-47.1689 244.459 -41.5705 250.214 -34.1891 250.288C-26.6229 250.362 -20.6365 244.515 -20.6273 237.037C-20.6088 229.726 -26.4012 223.786 -33.6348 223.703ZM156.757 414.817C156.729 407.544 150.863 401.641 143.629 401.604C136.119 401.567 130.225 407.497 130.252 415.058C130.28 422.323 136.156 428.179 143.426 428.198C151.094 428.216 156.794 422.499 156.757 414.817ZM143.555 45.7929C136.331 45.7373 130.354 51.5935 130.252 58.8304C130.151 66.3453 136.072 72.4053 143.5 72.3868C150.78 72.3683 156.655 66.5584 156.766 59.2937C156.868 51.5935 151.251 45.8486 143.555 45.7929ZM320.81 223.694C313.364 223.74 307.498 229.809 307.618 237.306C307.738 244.533 313.697 250.325 320.977 250.288C328.219 250.251 334.113 244.348 334.132 237.12C334.15 229.578 328.275 223.647 320.81 223.694ZM-48.3329 392.542C-48.3421 385.333 -54.2639 379.411 -61.4882 379.374C-68.962 379.337 -74.8653 385.268 -74.8468 392.801C-74.8283 400.019 -68.9435 405.903 -61.6915 405.968C-54.2546 406.033 -48.3144 400.066 -48.3329 392.542ZM348.313 68.0317C341.107 68.0966 335.351 74.0177 335.333 81.375C335.324 88.825 341.329 94.709 348.848 94.6256C356.073 94.5422 361.828 88.6396 361.838 81.2916C361.856 73.8509 355.842 67.9576 348.313 68.0317Z" fill="#CFDEEC"/>
<path d="M298.454 411.556C316.736 412.649 329.411 424.955 329.494 442.347C329.596 460.259 317.087 473.426 298.731 473.5C280.365 473.574 267.792 459.953 267.893 442.848C268.014 424.232 281.243 412.807 298.454 411.556ZM298.759 429.402C291.47 429.384 285.548 435.175 285.446 442.421C285.345 449.936 291.211 455.95 298.675 455.996C305.927 456.033 311.868 450.214 311.96 442.987C312.052 435.435 306.223 429.43 298.759 429.402Z" fill="#CFDEEC"/>
<path d="M298.897 379.93C303.396 380.014 307.461 384.035 307.507 388.446C307.553 393.088 303.378 397.082 298.537 397.036C294.029 396.989 289.936 392.968 289.899 388.557C289.853 383.98 294.167 379.847 298.897 379.93Z" fill="#CFDEEC"/>
<path d="M19.3464 30.7446C18.3302 48.6654 7.04103 61.8882 -11.5094 62.1569C-29.0252 62.4071 -42.3561 49.7773 -42.4946 31.6249C-42.624 13.4262 -29.7828 0.490635 -11.685 0.499902C6.53292 0.509169 17.9514 13.6486 19.3464 30.7446ZM-24.9604 31.245C-24.9789 38.5189 -19.1587 44.4956 -11.9714 44.579C-4.44216 44.6716 1.53501 38.8154 1.54425 31.3284C1.55349 23.8321 -4.37749 17.9481 -11.9067 17.9944C-19.1033 18.0315 -24.9419 23.9618 -24.9604 31.245Z" fill="#CFDEEC"/>
<path d="M143.953 194.7C154.097 194.7 164.249 194.672 174.393 194.709C181.996 194.737 185.636 198.379 185.654 206.097C185.701 226.613 185.701 247.119 185.654 267.634C185.636 275.649 182.042 279.272 174.19 279.281C153.893 279.309 133.597 279.309 113.3 279.281C104.792 279.272 101.346 275.788 101.337 267.189C101.309 246.831 101.309 226.474 101.337 206.116C101.346 198.444 104.958 194.765 112.58 194.719C123.037 194.654 133.495 194.7 143.953 194.7ZM119.453 212.834C119.453 229.254 119.453 245.08 119.453 261.083C135.648 261.083 151.538 261.083 167.474 261.083C167.474 244.802 167.474 228.864 167.474 212.834C151.307 212.834 135.528 212.834 119.453 212.834Z" fill="#CFDEEC"/>
</g>
<defs>
<clipPath id="clip0_5_355">
<rect width="474" height="380" fill="white" transform="translate(0 474) rotate(-90)"/>
</clipPath>
</defs>
</svg>
